# xmcd CD database file
#
# Track frame offsets:
#	150
#	19609
#	32564
#	45337
#	56643
#	68487
#	81389
#	91439
#	102957
#	112159
#	126186
#	138330
#	149919
#	164733
#
# Disc length: 2700 seconds
#
# Revision: 0
# Processed by: cddbd v1.5.2PL0 Copyright (c) Steve Scherf et al.
# Submitted via: CDex 1.70beta2
#
DISCID=c80a8a0e
DTITLE=Zak Laughed - The Last Memories Of My Old House
DYEAR=2009
DGENRE=Country
TTITLE0=December Day
TTITLE1=A Letter For Emily
TTITLE2=Each Day
TTITLE3=Queen Or Sweet
TTITLE4=Ballad Of Celestial Railroad
TTITLE5=Travelling Cat
TTITLE6=Apologies Song
TTITLE7=Wrong Clown
TTITLE8=22 and 66
TTITLE9=Hospital Road
TTITLE10=Ladybird And B. Dylan
TTITLE11=People Are Sick In The Rain
TTITLE12=Bad Cough
TTITLE13=Silly Bird
EXTD=YEAR: 2009
EXTT0=
EXTT1=
EXTT2=
EXTT3=
EXTT4=
EXTT5=
EXTT6=
EXTT7=
EXTT8=
EXTT9=
EXTT10=
EXTT11=
EXTT12=
EXTT13=
PLAYORDER=
